<svg xmlns="http://www.w3.org/2000/svg" viewBox="0 0 64 64" role="img" aria-label="Apple">
  <rect width="64" height="64" rx="14" fill="#111"/>
  <path d="M39.6 15.2c-2.4 1.4-4 3.9-3.7 6.5 2.6.2 5.3-1.5 6.9-3.6 1.5-2 2.2-4.6 2-6.9-2 .1-3.9 1.4-5.2 4Zm9.6 26.3c-1.1 2.5-1.7 3.6-3.2 5.8-2 3-4.9 6.7-8.4 6.7-3.2 0-4-2-8.3-2s-5.2 2-8.3 2c-3.5 0-6.1-3.4-8.2-6.4-5.8-8.5-6.4-18.5-2.8-23.8 2.6-3.8 6.7-6 10.5-6 3.9 0 6.3 2.1 9.5 2.1 3.1 0 5-2.1 9.5-2.1 3.4 0 7 1.9 9.6 5.1-8.4 4.6-7 16.6.1 18.6Z" fill="#fff"/>
</svg>
