<svg xmlns="http://www.w3.org/2000/svg" viewBox="0 0 64 64" role="img" aria-label="GitHub">
  <rect width="64" height="64" rx="14" fill="#0d1117"/>
  <path d="M32 12.8c-10.8 0-19.6 8.8-19.6 19.6 0 8.6 5.6 16 13.4 18.6 1 .2 1.3-.4 1.3-.9v-3.4c-5.4 1.2-6.6-2.3-6.6-2.3-.9-2.2-2.1-2.8-2.1-2.8-1.7-1.2.1-1.1.1-1.1 1.9.1 2.9 2 2.9 2 1.7 2.9 4.5 2.1 5.6 1.6.2-1.2.7-2.1 1.2-2.6-4.3-.5-8.9-2.2-8.9-9.7 0-2.1.8-3.9 2-5.3-.2-.5-.9-2.5.2-5.2 0 0 1.6-.5 5.4 2 1.6-.4 3.3-.7 5-.7s3.4.2 5 .7c3.8-2.5 5.4-2 5.4-2 1.1 2.7.4 4.7.2 5.2 1.2 1.4 2 3.2 2 5.3 0 7.5-4.6 9.2-8.9 9.7.7.6 1.3 1.8 1.3 3.6v5.3c0 .5.4 1.1 1.3.9 7.8-2.6 13.4-10 13.4-18.6 0-10.8-8.8-19.6-19.6-19.6Z" fill="#fff"/>
</svg>
