<svg xmlns="http://www.w3.org/2000/svg" viewBox="0 0 64 64" role="img" aria-label="Google">
  <rect width="64" height="64" rx="14" fill="#fff"/>
  <path d="M51 32.6c0-1.5-.1-2.6-.4-3.8H32v7.3h10.9c-.2 1.8-1.4 4.6-4 6.4l6.1 4.7c3.6-3.3 6-8.2 6-14.6Z" fill="#4285f4"/>
  <path d="M32 52c5.2 0 9.6-1.7 12.8-4.7l-6.1-4.7c-1.6 1.1-3.8 1.9-6.7 1.9-5.1 0-9.4-3.3-11-7.9l-6.3 4.9C17.9 47.7 24.4 52 32 52Z" fill="#34a853"/>
  <path d="M21 36.6c-.4-1.2-.7-2.5-.7-3.9s.2-2.7.7-3.9l-6.3-4.9c-1.3 2.7-2.1 5.6-2.1 8.8s.8 6.1 2.1 8.8l6.3-4.9Z" fill="#fbbc05"/>
  <path d="M32 20.9c3.6 0 6 1.6 7.4 2.9l5.5-5.3C41.5 15.4 37.2 13 32 13c-7.6 0-14.1 4.3-17.3 10.7l6.3 4.9c1.6-4.6 5.9-7.7 11-7.7Z" fill="#ea4335"/>
</svg>
